<?xml version="1.0" encoding="utf-8"?>
<!-- Generator: Adobe Illustrator 17.0.0, SVG Export Plug-In . SVG Version: 6.00 Build 0)  -->
<!DOCTYPE svg PUBLIC "-//W3C//DTD SVG 1.1//EN" "http://www.w3.org/Graphics/SVG/1.1/DTD/svg11.dtd">
<svg version="1.1" id="Capa_1" xmlns="http://www.w3.org/2000/svg" xmlns:xlink="http://www.w3.org/1999/xlink" x="0px" y="0px"
	 width="809.839px" height="199.194px" viewBox="530.274 92.702 809.839 199.194"
	 enable-background="new 530.274 92.702 809.839 199.194" xml:space="preserve">
<g>
	<g>
		<g>
			<g>
				<circle stroke="#000000" stroke-width="6" stroke-miterlimit="10" cx="1177.587" cy="257.06" r="4.714"/>
				<circle stroke="#000000" stroke-width="6" stroke-miterlimit="10" cx="1217.587" cy="257.06" r="4.714"/>
			</g>
			<g>
				
					<line fill="none" stroke="#000000" stroke-width="6" stroke-miterlimit="10" x1="1177.587" y1="172.07" x2="1217.587" y2="172.07"/>
				
					<line fill="none" stroke="#000000" stroke-width="6" stroke-miterlimit="10" x1="1172.873" y1="159.523" x2="1222.301" y2="159.523"/>
				
					<line fill="none" stroke="#000000" stroke-width="6" stroke-miterlimit="10" x1="1182.301" y1="184.794" x2="1212.873" y2="184.794"/>
			</g>
			<g>
				
					<line fill="none" stroke="#000000" stroke-width="10" stroke-miterlimit="10" x1="1131.087" y1="274.991" x2="1201.087" y2="204.991"/>
				<g>
					
						<line fill="none" stroke="#000000" stroke-width="10" stroke-miterlimit="10" x1="1264.087" y1="274.991" x2="1194.087" y2="204.991"/>
				</g>
			</g>
			
				<line fill="none" stroke="#000000" stroke-width="10" stroke-miterlimit="10" x1="1072.026" y1="109.606" x2="1136.67" y2="273.375"/>
			
				<line fill="none" stroke="#000000" stroke-width="10" stroke-miterlimit="10" x1="1323.17" y1="109.606" x2="1258.526" y2="273.375"/>
		</g>
	</g>
	<g>
		<path d="M547.217,251.584v-118.57h39.412c9.352,0,17.561,1.56,24.632,4.676c7.069,3.118,12.942,7.348,17.619,12.692
			c4.676,5.344,8.183,11.606,10.521,18.787c2.338,7.182,3.507,14.837,3.507,22.963c0,9.018-1.31,17.175-3.924,24.466
			c-2.617,7.293-6.375,13.526-11.272,18.704c-4.9,5.177-10.829,9.185-17.786,12.023c-6.959,2.839-14.725,4.259-23.296,4.259H547.217
			z M634.391,192.131c0-7.458-1.06-14.333-3.173-20.625c-2.116-6.288-5.206-11.716-9.269-16.282
			c-4.065-4.563-9.047-8.125-14.946-10.688c-5.902-2.56-12.692-3.841-20.374-3.841h-30.896v103.207h30.896
			c7.791,0,14.667-1.308,20.624-3.925c5.955-2.614,10.938-6.263,14.946-10.938c4.009-4.676,7.04-10.158,9.102-16.449
			C633.36,206.3,634.391,199.479,634.391,192.131z"/>
		<path d="M678.813,251.584v-118.57h8.517v118.57H678.813z"/>
		<path d="M730.917,251.584v-118.57h48.764c5.01,0,9.629,1.059,13.861,3.173c4.229,2.116,7.875,4.926,10.938,8.434
			c3.061,3.507,5.453,7.46,7.181,11.857c1.725,4.399,2.589,8.824,2.589,13.276c0,4.788-0.81,9.409-2.422,13.86
			c-1.615,4.455-3.898,8.408-6.847,11.857c-2.951,3.452-6.487,6.208-10.604,8.267c-4.12,2.062-8.685,3.09-13.694,3.09h-41.249
			v44.756H730.917z M739.433,198.978h40.915c3.896,0,7.403-0.806,10.521-2.421c3.115-1.613,5.761-3.784,7.932-6.514
			c2.172-2.727,3.842-5.845,5.011-9.352s1.753-7.152,1.753-10.938c0-3.896-0.696-7.599-2.087-11.105
			c-1.394-3.507-3.285-6.597-5.679-9.269c-2.395-2.672-5.177-4.786-8.35-6.346c-3.173-1.558-6.542-2.338-10.104-2.338h-39.913
			V198.978z"/>
		<path d="M847.147,251.584v-118.57h49.265c5.01,0,9.629,1.059,13.861,3.173c4.229,2.116,7.875,4.926,10.938,8.434
			c3.061,3.507,5.453,7.46,7.181,11.857c1.725,4.399,2.589,8.824,2.589,13.276c0,4.342-0.668,8.546-2.004,12.608
			c-1.336,4.065-3.23,7.711-5.679,10.938c-2.45,3.23-5.401,5.902-8.851,8.016c-3.452,2.117-7.238,3.508-11.356,4.176l29.56,46.092
			h-9.854l-28.724-44.756h-38.41v44.756H847.147z M855.664,198.978h41.583c3.784,0,7.236-0.835,10.354-2.505
			c3.115-1.67,5.787-3.867,8.016-6.597c2.226-2.727,3.925-5.845,5.094-9.352s1.753-7.098,1.753-10.771
			c0-3.784-0.696-7.432-2.087-10.938c-1.394-3.507-3.285-6.597-5.679-9.269c-2.395-2.672-5.177-4.814-8.35-6.43
			c-3.173-1.613-6.597-2.422-10.271-2.422h-40.414V198.978z"/>
		<path d="M1015.313,252.419c-8.24,0-15.756-1.725-22.545-5.177c-6.792-3.45-12.638-7.959-17.535-13.527
			c-4.9-5.565-8.684-11.967-11.355-19.205c-2.673-7.235-4.009-14.639-4.009-22.211c0-7.904,1.42-15.474,4.259-22.712
			c2.839-7.236,6.734-13.637,11.69-19.205c4.952-5.566,10.826-9.992,17.618-13.277c6.79-3.283,14.138-4.926,22.044-4.926
			c8.238,0,15.781,1.753,22.629,5.26c6.847,3.507,12.691,8.1,17.534,13.778c4.844,5.678,8.601,12.107,11.272,19.288
			c2.673,7.182,4.009,14.446,4.009,21.794c0,8.016-1.42,15.644-4.259,22.879c-2.839,7.238-6.737,13.61-11.69,19.122
			c-4.955,5.511-10.828,9.91-17.618,13.192C1030.565,250.777,1023.216,252.419,1015.313,252.419z M968.386,192.298
			c0,6.792,1.14,13.334,3.423,19.623c2.281,6.291,5.512,11.856,9.687,16.699c4.175,4.844,9.156,8.713,14.946,11.606
			c5.788,2.896,12.134,4.343,19.038,4.343c7.124,0,13.553-1.503,19.288-4.51c5.733-3.006,10.631-6.984,14.696-11.94
			c4.063-4.952,7.207-10.547,9.436-16.783c2.226-6.233,3.34-12.58,3.34-19.038c0-6.79-1.169-13.331-3.507-19.623
			c-2.338-6.288-5.595-11.856-9.77-16.699c-4.175-4.844-9.102-8.71-14.779-11.607c-5.678-2.894-11.914-4.342-18.704-4.342
			c-7.126,0-13.584,1.503-19.372,4.509c-5.79,3.006-10.745,6.988-14.863,11.941c-4.12,4.955-7.293,10.55-9.519,16.783
			C969.498,179.497,968.386,185.842,968.386,192.298z"/>
	</g>
</g>
</svg>
