<?xml version="1.0" encoding="utf-8"?>
<!-- Generator: Adobe Illustrator 17.0.0, SVG Export Plug-In . SVG Version: 6.00 Build 0)  -->
<!DOCTYPE svg PUBLIC "-//W3C//DTD SVG 1.1//EN" "http://www.w3.org/Graphics/SVG/1.1/DTD/svg11.dtd">
<svg version="1.1" id="Capa_1" xmlns="http://www.w3.org/2000/svg" xmlns:xlink="http://www.w3.org/1999/xlink" x="0px" y="0px"
	 width="984.849px" height="385.492px" viewBox="0 0 984.849 385.492" enable-background="new 0 0 984.849 385.492"
	 xml:space="preserve">
<g>
	<g>
		<g>
			<path fill="none" stroke="#FFFFFF" stroke-width="10" stroke-miterlimit="10" d="M43.415,47.988c0.56,0,150.311,0,150.311,0
				c52.077,0,94.294,37.384,94.294,83.5s-42.217,83.5-94.294,83.5c0,0-149.709,0-150.311,0"/>
		</g>
		<g>
			<g>
				<path fill="none" stroke="#FFFFFF" stroke-width="10" stroke-miterlimit="10" d="M533.78,47.988h-164v130h164
					c44.183,0,80-29.101,80-65S577.963,47.988,533.78,47.988z"/>
				<path fill="none" stroke="#FFFFFF" stroke-width="10" stroke-miterlimit="10" d="M369.78,47.988v167V47.988z"/>
			</g>
		</g>
		<g>
			<g>
				<g>
					<circle fill="#FFFFFF" stroke="#FFFFFF" stroke-width="6" stroke-miterlimit="10" cx="797.831" cy="196.25" r="4.714"/>
					<circle fill="#FFFFFF" stroke="#FFFFFF" stroke-width="6" stroke-miterlimit="10" cx="837.831" cy="196.25" r="4.714"/>
				</g>
				<g>
					
						<line fill="none" stroke="#FFFFFF" stroke-width="6" stroke-miterlimit="10" x1="797.831" y1="111.26" x2="837.831" y2="111.26"/>
					
						<line fill="none" stroke="#FFFFFF" stroke-width="6" stroke-miterlimit="10" x1="793.117" y1="98.713" x2="842.546" y2="98.713"/>
					
						<line fill="none" stroke="#FFFFFF" stroke-width="6" stroke-miterlimit="10" x1="802.546" y1="123.984" x2="833.117" y2="123.984"/>
				</g>
				<g>
					
						<line fill="none" stroke="#FFFFFF" stroke-width="10" stroke-miterlimit="10" x1="751.331" y1="214.181" x2="821.331" y2="144.181"/>
					<g>
						
							<line fill="none" stroke="#FFFFFF" stroke-width="10" stroke-miterlimit="10" x1="884.331" y1="214.181" x2="814.331" y2="144.181"/>
					</g>
				</g>
				
					<line fill="none" stroke="#FFFFFF" stroke-width="10" stroke-miterlimit="10" x1="692.271" y1="48.796" x2="756.914" y2="212.565"/>
				
					<line fill="none" stroke="#FFFFFF" stroke-width="10" stroke-miterlimit="10" x1="943.414" y1="48.796" x2="878.771" y2="212.565"/>
			</g>
		</g>
	</g>
	<g>
		<path fill="#FFFFFF" stroke="#FFFFFF" stroke-miterlimit="10" d="M25.844,336.514v-70.29h23.364c5.544,0,10.41,0.926,14.602,2.772
			c4.19,1.849,7.672,4.355,10.444,7.523c2.771,3.168,4.851,6.881,6.237,11.138s2.078,8.796,2.078,13.612
			c0,5.347-0.776,10.182-2.326,14.504c-1.552,4.323-3.779,8.019-6.683,11.088c-2.905,3.068-6.419,5.445-10.543,7.128
			c-4.126,1.683-8.729,2.524-13.81,2.524H25.844V336.514z M77.521,301.27c0-4.421-0.628-8.497-1.881-12.227
			c-1.255-3.728-3.086-6.945-5.494-9.652c-2.41-2.705-5.363-4.816-8.86-6.336c-3.499-1.518-7.524-2.276-12.078-2.276H30.893v61.182
			h18.315c4.619,0,8.694-0.775,12.226-2.327c3.529-1.55,6.484-3.712,8.86-6.484c2.376-2.771,4.173-6.021,5.396-9.751
			C76.911,309.67,77.521,305.627,77.521,301.27z"/>
		<path fill="#FFFFFF" stroke="#FFFFFF" stroke-miterlimit="10" d="M103.855,336.514v-70.29h5.049v70.29H103.855z"/>
		<path fill="#FFFFFF" stroke="#FFFFFF" stroke-miterlimit="10" d="M134.743,336.514v-70.29h28.908c2.97,0,5.708,0.628,8.217,1.881
			c2.508,1.255,4.668,2.921,6.484,5c1.814,2.079,3.233,4.423,4.257,7.029c1.022,2.607,1.535,5.231,1.535,7.87
			c0,2.839-0.479,5.578-1.436,8.217c-0.958,2.641-2.312,4.984-4.06,7.029c-1.749,2.047-3.846,3.68-6.286,4.9
			c-2.442,1.222-5.148,1.831-8.118,1.831h-24.453v26.532h-5.048V336.514z M139.792,305.33h24.255c2.31,0,4.389-0.479,6.237-1.436
			c1.847-0.956,3.415-2.243,4.702-3.861c1.287-1.616,2.277-3.465,2.971-5.544c0.692-2.079,1.039-4.24,1.039-6.484
			c0-2.31-0.413-4.505-1.237-6.583c-0.826-2.079-1.947-3.911-3.366-5.495c-1.42-1.584-3.069-2.837-4.95-3.762
			c-1.881-0.924-3.878-1.386-5.989-1.386h-23.661L139.792,305.33L139.792,305.33z"/>
		<path fill="#FFFFFF" stroke="#FFFFFF" stroke-miterlimit="10" d="M203.646,336.514v-70.29h29.205c2.97,0,5.708,0.628,8.217,1.881
			c2.508,1.255,4.669,2.921,6.484,5c1.814,2.079,3.233,4.423,4.257,7.029c1.022,2.607,1.535,5.231,1.535,7.87
			c0,2.574-0.396,5.066-1.188,7.475c-0.792,2.41-1.915,4.571-3.366,6.484c-1.452,1.915-3.201,3.499-5.247,4.752
			c-2.046,1.255-4.291,2.079-6.731,2.475l17.522,27.324h-5.841l-17.027-26.532h-22.771v26.532L203.646,336.514L203.646,336.514z
			 M208.695,305.33h24.651c2.243,0,4.289-0.495,6.138-1.485c1.847-0.99,3.431-2.292,4.752-3.91c1.319-1.616,2.326-3.465,3.02-5.544
			s1.04-4.208,1.04-6.386c0-2.243-0.413-4.405-1.238-6.484c-0.826-2.079-1.947-3.91-3.365-5.494
			c-1.421-1.585-3.069-2.854-4.95-3.812c-1.881-0.956-3.911-1.436-6.089-1.436h-23.958L208.695,305.33L208.695,305.33z"/>
		<path fill="#FFFFFF" stroke="#FFFFFF" stroke-miterlimit="10" d="M303.338,337.009c-4.885,0-9.34-1.022-13.364-3.069
			c-4.027-2.045-7.492-4.718-10.396-8.019c-2.905-3.3-5.147-7.094-6.731-11.385c-1.584-4.29-2.376-8.678-2.376-13.167
			c0-4.686,0.841-9.173,2.524-13.464c1.683-4.29,3.992-8.084,6.93-11.386c2.936-3.299,6.418-5.923,10.444-7.87
			c4.025-1.946,8.381-2.921,13.068-2.921c4.883,0,9.355,1.04,13.414,3.119c4.06,2.079,7.524,4.801,10.396,8.167
			s5.099,7.178,6.683,11.435s2.376,8.563,2.376,12.92c0,4.752-0.842,9.273-2.525,13.563c-1.683,4.291-3.993,8.068-6.93,11.336
			c-2.938,3.267-6.419,5.875-10.444,7.82C312.38,336.037,308.023,337.009,303.338,337.009z M275.519,301.37
			c0,4.026,0.676,7.904,2.029,11.632c1.352,3.729,3.267,7.029,5.742,9.9s5.428,5.165,8.86,6.88
			c3.431,1.718,7.192,2.574,11.286,2.574c4.223,0,8.034-0.891,11.435-2.673c3.398-1.782,6.302-4.141,8.712-7.078
			c2.408-2.937,4.272-6.253,5.594-9.95c1.319-3.695,1.979-7.457,1.979-11.285c0-4.025-0.693-7.903-2.079-11.633
			c-1.386-3.728-3.316-7.029-5.791-9.9c-2.476-2.87-5.396-5.163-8.762-6.88c-3.366-1.716-7.063-2.574-11.088-2.574
			c-4.225,0-8.054,0.891-11.484,2.673c-3.433,1.782-6.37,4.143-8.811,7.079c-2.442,2.938-4.324,6.254-5.644,9.949
			C276.178,293.781,275.519,297.543,275.519,301.37z"/>
		<path fill="#FFFFFF" stroke="#FFFFFF" stroke-miterlimit="10" d="M381.647,266.719h4.95l10.494,25.542l10.494-25.542h4.95
			l-12.375,29.602l14.751,34.253l26.928-64.35h5.544l-30.096,70.29h-4.653l-15.444-36.135l-15.543,36.135h-4.652l-29.997-70.29
			h5.444l27.027,64.35l14.553-34.253L381.647,266.719z"/>
		<path fill="#FFFFFF" stroke="#FFFFFF" stroke-miterlimit="10" d="M535.789,277.907c-4.554-5.082-10.988-7.623-19.305-7.623
			c-6.865,0-11.864,1.304-14.999,3.91c-3.135,2.608-4.702,6.123-4.702,10.544c0,2.244,0.396,4.108,1.188,5.593
			s2.029,2.757,3.712,3.812c1.684,1.057,3.812,1.948,6.386,2.673c2.574,0.728,5.676,1.485,9.306,2.277
			c3.763,0.792,7.178,1.668,10.247,2.624c3.068,0.957,5.675,2.162,7.82,3.613c2.145,1.452,3.795,3.234,4.95,5.346
			c1.154,2.113,1.732,4.72,1.732,7.821c0,3.103-0.61,5.808-1.831,8.117c-1.222,2.312-2.938,4.242-5.148,5.792
			c-2.212,1.552-4.851,2.723-7.92,3.515c-3.068,0.792-6.484,1.188-10.246,1.188c-10.957,0-20.23-3.497-27.819-10.494l2.673-4.059
			c2.971,3.103,6.6,5.561,10.891,7.375c4.289,1.816,9.107,2.723,14.454,2.723c6.138,0,10.939-1.121,14.404-3.365
			c3.465-2.243,5.197-5.644,5.197-10.197c0-2.31-0.463-4.272-1.386-5.891c-0.925-1.616-2.294-3.02-4.108-4.207
			c-1.816-1.188-4.108-2.211-6.881-3.069c-2.772-0.856-6.007-1.683-9.702-2.475c-3.762-0.792-7.078-1.634-9.949-2.524
			c-2.871-0.892-5.281-2.013-7.228-3.366s-3.415-2.985-4.405-4.9c-0.99-1.914-1.484-4.322-1.484-7.228
			c0-3.168,0.609-5.973,1.831-8.415c1.221-2.44,2.921-4.504,5.099-6.188c2.178-1.683,4.784-2.953,7.821-3.812
			c3.034-0.856,6.4-1.287,10.098-1.287c4.554,0,8.613,0.678,12.177,2.03c3.564,1.354,6.797,3.415,9.702,6.188L535.789,277.907z"/>
		<path fill="#FFFFFF" stroke="#FFFFFF" stroke-miterlimit="10" d="M582.318,337.505c-3.63,0-6.979-0.71-10.048-2.129
			c-3.069-1.418-5.727-3.349-7.97-5.791c-2.245-2.441-3.994-5.28-5.247-8.515c-1.255-3.232-1.881-6.633-1.881-10.196
			c0-3.629,0.644-7.062,1.931-10.296c1.287-3.233,3.052-6.071,5.296-8.515c2.243-2.44,4.9-4.371,7.97-5.791
			c3.069-1.419,6.386-2.129,9.949-2.129c3.564,0,6.864,0.71,9.9,2.129c3.035,1.42,5.692,3.351,7.97,5.791
			c2.276,2.443,4.059,5.281,5.346,8.515s1.931,6.667,1.931,10.296c0,3.563-0.644,6.964-1.931,10.196
			c-1.287,3.234-3.054,6.073-5.297,8.515c-2.244,2.442-4.9,4.373-7.969,5.791C589.199,336.795,585.882,337.505,582.318,337.505z
			 M562.123,311.071c0,3.037,0.527,5.891,1.584,8.563c1.055,2.674,2.49,5,4.306,6.979c1.814,1.98,3.943,3.549,6.386,4.703
			c2.441,1.155,5.049,1.732,7.821,1.732c2.771,0,5.378-0.577,7.821-1.732c2.44-1.154,4.586-2.755,6.435-4.802
			c1.847-2.045,3.3-4.405,4.356-7.078c1.055-2.674,1.584-5.56,1.584-8.663c0-3.034-0.529-5.89-1.584-8.563
			c-1.057-2.673-2.51-5.015-4.356-7.028c-1.849-2.013-3.977-3.613-6.386-4.802c-2.41-1.188-4.999-1.782-7.771-1.782
			c-2.771,0-5.38,0.595-7.82,1.782c-2.443,1.188-4.571,2.806-6.386,4.851c-1.816,2.047-3.268,4.44-4.356,7.178
			C562.667,305.148,562.123,308.037,562.123,311.071z"/>
		<path fill="#FFFFFF" stroke="#FFFFFF" stroke-miterlimit="10" d="M627.166,264.245h5.049v62.072c0,1.915,0.545,3.433,1.634,4.555
			c1.089,1.123,2.589,1.683,4.504,1.683c0.726,0,1.6-0.082,2.624-0.247c1.022-0.164,1.963-0.412,2.821-0.743l0.99,3.96
			c-1.123,0.463-2.509,0.842-4.158,1.139c-1.65,0.297-3.069,0.445-4.257,0.445c-2.772,0-5-0.841-6.683-2.524
			c-1.683-1.683-2.524-3.942-2.524-6.781V264.245L627.166,264.245z"/>
		<path fill="#FFFFFF" stroke="#FFFFFF" stroke-miterlimit="10" d="M675.773,337.505c-10.957,0-16.435-7.589-16.435-22.771v-29.699
			h4.95v29.007c0,12.672,4.322,19.008,12.97,19.008c2.178,0,4.289-0.379,6.336-1.139c2.045-0.758,3.96-1.814,5.741-3.168
			c1.782-1.352,3.35-2.985,4.703-4.9c1.352-1.914,2.425-4.025,3.217-6.336v-32.472h4.95v44.55c0,1.65,0.693,2.475,2.079,2.475v4.455
			c-0.331,0.065-0.628,0.099-0.891,0.099c-0.265,0-0.463,0-0.594,0c-1.321,0-2.492-0.411-3.515-1.237
			c-1.024-0.824-1.535-1.931-1.535-3.316v-7.722c-2.244,4.158-5.33,7.393-9.256,9.702
			C684.567,336.35,680.327,337.505,675.773,337.505z"/>
		<path fill="#FFFFFF" stroke="#FFFFFF" stroke-miterlimit="10" d="M748.34,334.04c-0.265,0.133-0.71,0.38-1.337,0.742
			c-0.628,0.363-1.42,0.71-2.376,1.039c-0.958,0.331-2.029,0.628-3.218,0.892c-1.188,0.263-2.475,0.396-3.86,0.396
			c-1.387,0-2.69-0.197-3.911-0.594c-1.222-0.396-2.294-0.99-3.217-1.782c-0.926-0.792-1.651-1.748-2.179-2.871
			c-0.528-1.121-0.792-2.44-0.792-3.96v-38.808h-7.227v-4.059h7.227v-17.622h4.95v17.622h11.979v4.059H732.4v37.62
			c0,1.915,0.659,3.351,1.98,4.307c1.319,0.957,2.804,1.436,4.454,1.436c2.046,0,3.812-0.347,5.297-1.04
			c1.485-0.692,2.392-1.139,2.723-1.336L748.34,334.04z"/>
		<path fill="#FFFFFF" stroke="#FFFFFF" stroke-miterlimit="10" d="M764.475,273.352v-9.107h4.95v9.107H764.475z M764.475,336.514
			v-51.479h4.95v51.479H764.475z"/>
		<path fill="#FFFFFF" stroke="#FFFFFF" stroke-miterlimit="10" d="M813.973,337.505c-3.63,0-6.979-0.71-10.048-2.129
			c-3.069-1.418-5.727-3.349-7.97-5.791c-2.245-2.441-3.994-5.28-5.247-8.515c-1.255-3.232-1.881-6.633-1.881-10.196
			c0-3.629,0.644-7.062,1.931-10.296c1.287-3.233,3.052-6.071,5.296-8.515c2.243-2.44,4.9-4.371,7.97-5.791
			c3.069-1.419,6.386-2.129,9.949-2.129c3.564,0,6.864,0.71,9.9,2.129c3.035,1.42,5.692,3.351,7.97,5.791
			c2.276,2.443,4.059,5.281,5.346,8.515s1.931,6.667,1.931,10.296c0,3.563-0.644,6.964-1.931,10.196
			c-1.287,3.234-3.054,6.073-5.297,8.515c-2.244,2.442-4.9,4.373-7.969,5.791C820.854,336.795,817.538,337.505,813.973,337.505z
			 M793.778,311.071c0,3.037,0.527,5.891,1.584,8.563c1.055,2.674,2.49,5,4.306,6.979c1.814,1.98,3.943,3.549,6.386,4.703
			c2.441,1.155,5.049,1.732,7.821,1.732c2.771,0,5.378-0.577,7.821-1.732c2.44-1.154,4.586-2.755,6.435-4.802
			c1.847-2.045,3.3-4.405,4.356-7.078c1.055-2.674,1.584-5.56,1.584-8.663c0-3.034-0.529-5.89-1.584-8.563
			c-1.057-2.673-2.51-5.015-4.356-7.028c-1.849-2.013-3.977-3.613-6.386-4.802c-2.41-1.188-4.999-1.782-7.771-1.782
			c-2.771,0-5.38,0.595-7.82,1.782c-2.443,1.188-4.571,2.806-6.386,4.851c-1.816,2.047-3.268,4.44-4.356,7.178
			C794.322,305.148,793.778,308.037,793.778,311.071z"/>
		<path fill="#FFFFFF" stroke="#FFFFFF" stroke-miterlimit="10" d="M900.5,336.514h-4.95v-28.71c0-6.665-0.94-11.517-2.821-14.553
			c-1.881-3.035-4.868-4.554-8.959-4.554c-2.179,0-4.341,0.396-6.485,1.188c-2.146,0.792-4.142,1.915-5.989,3.366
			c-1.849,1.452-3.465,3.152-4.851,5.099s-2.41,4.043-3.069,6.286v31.878h-4.95v-51.479h4.653v12.275
			c1.055-1.979,2.359-3.777,3.91-5.396c1.551-1.616,3.3-3.002,5.247-4.157c1.946-1.154,4.01-2.045,6.188-2.674
			c2.179-0.626,4.421-0.94,6.732-0.94c5.608,0,9.568,1.965,11.88,5.891c2.31,3.928,3.465,9.554,3.465,16.88v29.6L900.5,336.514
			L900.5,336.514z"/>
		<path fill="#FFFFFF" stroke="#FFFFFF" stroke-miterlimit="10" d="M939.206,337.505c-3.96,0-7.756-0.661-11.385-1.98
			c-3.631-1.319-6.799-3.299-9.504-5.939l2.475-3.366c2.772,2.509,5.644,4.355,8.613,5.544c2.97,1.188,6.237,1.782,9.801,1.782
			c4.488,0,8.102-0.94,10.841-2.821c2.738-1.882,4.108-4.505,4.108-7.871c0-1.584-0.347-2.92-1.039-4.01
			c-0.693-1.089-1.732-2.012-3.119-2.771c-1.386-0.758-3.103-1.436-5.147-2.029c-2.047-0.595-4.423-1.221-7.128-1.881
			c-2.905-0.659-5.43-1.32-7.574-1.98c-2.146-0.659-3.91-1.451-5.296-2.376c-1.386-0.923-2.426-2.045-3.118-3.366
			c-0.693-1.319-1.04-3.002-1.04-5.049c0-2.574,0.495-4.816,1.485-6.731c0.989-1.914,2.358-3.498,4.108-4.752
			c1.748-1.253,3.762-2.193,6.039-2.822c2.276-0.626,4.702-0.94,7.276-0.94c4.024,0,7.589,0.678,10.691,2.03
			c3.102,1.354,5.511,3.086,7.228,5.197l-2.772,2.673c-1.717-1.98-3.944-3.465-6.682-4.455c-2.74-0.99-5.66-1.485-8.762-1.485
			c-1.915,0-3.713,0.198-5.396,0.595c-1.684,0.396-3.152,1.023-4.405,1.881c-1.255,0.858-2.245,1.964-2.971,3.316
			c-0.727,1.354-1.089,2.954-1.089,4.802c0,1.519,0.248,2.739,0.742,3.663c0.495,0.925,1.287,1.717,2.376,2.376
			c1.09,0.66,2.491,1.237,4.208,1.732c1.716,0.495,3.762,1.039,6.138,1.633c3.233,0.792,6.104,1.552,8.613,2.277
			c2.508,0.727,4.604,1.618,6.286,2.673c1.684,1.057,2.971,2.311,3.861,3.762c0.891,1.453,1.337,3.301,1.337,5.544
			c0,4.621-1.8,8.301-5.396,11.039C950.013,336.135,945.211,337.505,939.206,337.505z"/>
	</g>
</g>
</svg>
