<?xml version="1.0" encoding="utf-8"?>
<!-- Generator: Adobe Illustrator 17.0.0, SVG Export Plug-In . SVG Version: 6.00 Build 0)  -->
<!DOCTYPE svg PUBLIC "-//W3C//DTD SVG 1.1//EN" "http://www.w3.org/Graphics/SVG/1.1/DTD/svg11.dtd">
<svg version="1.1" id="Capa_1" xmlns="http://www.w3.org/2000/svg" xmlns:xlink="http://www.w3.org/1999/xlink" x="0px" y="0px"
	 width="960px" height="305.5px" viewBox="0 0 960 305.5" enable-background="new 0 0 960 305.5" xml:space="preserve">
<g>
	<g>
		<path fill="none" stroke="#FFFFFF" stroke-width="10" stroke-miterlimit="10" d="M30,69.25c0.56,0,150.311,0,150.311,0
			c52.077,0,94.294,37.384,94.294,83.5s-42.217,83.5-94.294,83.5c0,0-149.709,0-150.311,0"/>
	</g>
	<g>
		<g>
			<path fill="none" stroke="#FFFFFF" stroke-width="10" stroke-miterlimit="10" d="M520.365,69.25h-164v130h164
				c44.183,0,80-29.101,80-65S564.548,69.25,520.365,69.25z"/>
			<path fill="none" stroke="#FFFFFF" stroke-width="10" stroke-miterlimit="10" d="M356.365,69.25v167V69.25z"/>
		</g>
	</g>
	<g>
		<g>
			<g>
				<circle fill="#FFFFFF" stroke="#FFFFFF" stroke-width="6" stroke-miterlimit="10" cx="784.417" cy="217.512" r="4.714"/>
				<circle fill="#FFFFFF" stroke="#FFFFFF" stroke-width="6" stroke-miterlimit="10" cx="824.417" cy="217.512" r="4.714"/>
			</g>
			<g>
				
					<line fill="none" stroke="#FFFFFF" stroke-width="6" stroke-miterlimit="10" x1="784.417" y1="132.522" x2="824.417" y2="132.522"/>
				
					<line fill="none" stroke="#FFFFFF" stroke-width="6" stroke-miterlimit="10" x1="779.703" y1="119.975" x2="829.131" y2="119.975"/>
				
					<line fill="none" stroke="#FFFFFF" stroke-width="6" stroke-miterlimit="10" x1="789.131" y1="145.246" x2="819.703" y2="145.246"/>
			</g>
			<g>
				
					<line fill="none" stroke="#FFFFFF" stroke-width="10" stroke-miterlimit="10" x1="737.917" y1="235.443" x2="807.917" y2="165.443"/>
				<g>
					
						<line fill="none" stroke="#FFFFFF" stroke-width="10" stroke-miterlimit="10" x1="870.917" y1="235.443" x2="800.917" y2="165.443"/>
				</g>
			</g>
			
				<line fill="none" stroke="#FFFFFF" stroke-width="10" stroke-miterlimit="10" x1="678.856" y1="70.058" x2="743.5" y2="233.827"/>
			<line fill="none" stroke="#FFFFFF" stroke-width="10" stroke-miterlimit="10" x1="930" y1="70.058" x2="865.356" y2="233.827"/>
		</g>
	</g>
</g>
</svg>
